<svg xmlns="http://www.w3.org/2000/svg" width="12" height="12" fill="none" viewBox="0 0 12 12">
  <path stroke="#EBDDD6" stroke-linecap="round" stroke-linejoin="round" stroke-width="1.5" d="M4.25 9.375C1.742 10.133 1.742 8.02.75 7.75m7 2.708V8.562c0-.542.059-.758-.291-1.083 1.633-.163 3.208-.759 3.208-3.25 0-.648-.273-1.27-.758-1.734A2.126 2.126 0 0 0 9.85.762S9.21.6 7.81 1.466a7.71 7.71 0 0 0-3.617 0C2.792.6 2.15.762 2.15.762a2.126 2.126 0 0 0-.058 1.733 2.402 2.402 0 0 0-.758 1.734c0 2.491 1.575 3.087 3.208 3.25-.35.325-.35.65-.292 1.083v1.896"/>
</svg>
